<svg xmlns="http://www.w3.org/2000/svg" viewBox="0 0 1200 750" width="1200" height="750">
<rect width="1200" height="750" fill="#faf6ec"/><circle cx="980" cy="160" r="230" fill="#f6d79f" opacity=".55"/><circle cx="170" cy="640" r="260" fill="#cfe3d7"/>
<path d="M0 690 Q300 650 600 690 T1200 680 L1200 750 L0 750 Z" fill="#cfe3d7" opacity=".7"/><rect x="200" y="130" width="820" height="480" rx="18" fill="#fff" stroke="#1c3a55" stroke-width="6"/>
<g stroke="#cfe3d7" stroke-width="3"><path d="M240 520 h740 M240 440 h740 M240 360 h740 M240 280 h740"/></g><path d="M240 200 L240 580 L990 580" stroke="#1c3a55" stroke-width="6" fill="none"/>
<polygon points="250,580 250,560 330,540 410,548 490,500 570,510 650,450 730,430 810,380 890,350 970,290 970,580" fill="#f3b88f" opacity=".55"/><polyline points="250,560 330,540 410,548 490,500 570,510 650,450 730,430 810,380 890,350 970,290" fill="none" stroke="#e8896a" stroke-width="9" stroke-linejoin="round" stroke-linecap="round"/>
<circle cx="250" cy="560" r="9" fill="#fff" stroke="#1c3a55" stroke-width="4"/><circle cx="330" cy="540" r="9" fill="#fff" stroke="#1c3a55" stroke-width="4"/><circle cx="410" cy="548" r="9" fill="#fff" stroke="#1c3a55" stroke-width="4"/><circle cx="490" cy="500" r="9" fill="#fff" stroke="#1c3a55" stroke-width="4"/><circle cx="570" cy="510" r="9" fill="#fff" stroke="#1c3a55" stroke-width="4"/><circle cx="650" cy="450" r="9" fill="#fff" stroke="#1c3a55" stroke-width="4"/><circle cx="730" cy="430" r="9" fill="#fff" stroke="#1c3a55" stroke-width="4"/><circle cx="810" cy="380" r="9" fill="#fff" stroke="#1c3a55" stroke-width="4"/><circle cx="890" cy="350" r="9" fill="#fff" stroke="#1c3a55" stroke-width="4"/><circle cx="970" cy="290" r="9" fill="#fff" stroke="#1c3a55" stroke-width="4"/>
<text x="260" y="190" font-family="Georgia, 'Times New Roman', serif" font-size="42" fill="#1c3a55">Visitors a day: about 10</text></svg>